<?xml version="1.0" encoding="UTF-8" standalone="no"?>
<!-- Created with Inkscape (http://www.inkscape.org/) -->

<svg
   xmlns:dc="http://purl.org/dc/elements/1.1/"
   xmlns:cc="http://creativecommons.org/ns#"
   xmlns:rdf="http://www.w3.org/1999/02/22-rdf-syntax-ns#"
   xmlns:svg="http://www.w3.org/2000/svg"
   xmlns="http://www.w3.org/2000/svg"
   xmlns:sodipodi="http://sodipodi.sourceforge.net/DTD/sodipodi-0.dtd"
   xmlns:inkscape="http://www.inkscape.org/namespaces/inkscape"
   version="1.1"
   width="718.57373"
   height="305.07376"
   id="svg2"
   xml:space="preserve"
   inkscape:version="0.48.4 r9939"
   sodipodi:docname="nikola.svg"
   inkscape:export-filename="/home/kwpolska/git/nikola/logo/nikola-transparent.png"
   inkscape:export-xdpi="96"
   inkscape:export-ydpi="96"><title
     id="title2996">Nikola Logo</title><sodipodi:namedview
     pagecolor="#ffffff"
     bordercolor="#666666"
     borderopacity="1"
     objecttolerance="10"
     gridtolerance="10"
     guidetolerance="10"
     inkscape:pageopacity="0"
     inkscape:pageshadow="2"
     inkscape:window-width="1920"
     inkscape:window-height="989"
     id="namedview19"
     showgrid="false"
     inkscape:zoom="0.31466667"
     inkscape:cx="-142.83114"
     inkscape:cy="108.24875"
     inkscape:window-x="-2"
     inkscape:window-y="26"
     inkscape:window-maximized="1"
     inkscape:current-layer="svg2"
     fit-margin-top="88.58"
     fit-margin-left="0"
     fit-margin-right="0"
     fit-margin-bottom="0" /><metadata
     id="metadata8"><rdf:RDF><cc:Work
         rdf:about=""><dc:format>image/svg+xml</dc:format><dc:type
           rdf:resource="http://purl.org/dc/dcmitype/StillImage" /><dc:title>Nikola Logo</dc:title><dc:date>April 4, 2014</dc:date><dc:creator><cc:Agent><dc:title>Dipaanna</dc:title></cc:Agent></dc:creator><dc:rights><cc:Agent><dc:title /></cc:Agent></dc:rights><dc:publisher><cc:Agent><dc:title>Nikola</dc:title></cc:Agent></dc:publisher><cc:license
           rdf:resource="http://creativecommons.org/licenses/by-sa/3.0/" /><dc:description>Logo for Nikola: http://getnikola.com</dc:description></cc:Work><cc:License
         rdf:about="http://creativecommons.org/licenses/by-sa/3.0/"><cc:permits
           rdf:resource="http://creativecommons.org/ns#Reproduction" /><cc:permits
           rdf:resource="http://creativecommons.org/ns#Distribution" /><cc:requires
           rdf:resource="http://creativecommons.org/ns#Notice" /><cc:requires
           rdf:resource="http://creativecommons.org/ns#Attribution" /><cc:permits
           rdf:resource="http://creativecommons.org/ns#DerivativeWorks" /><cc:requires
           rdf:resource="http://creativecommons.org/ns#ShareAlike" /></cc:License></rdf:RDF></metadata><defs
     id="defs6"><clipPath
       id="clipPath18"><path
         d="M 0,5999.97 0,0 l 7999.99,0 0,5999.97"
         inkscape:connector-curvature="0"
         id="path20" /></clipPath></defs><path
     d="m 414.04625,186.07 c -6.77125,6.7075 -15.61,10.06375 -26.48,10.06375 l -3.3925,0 c -10.955,0 -19.88125,-3.35625 -26.71875,-10.06375 -6.86625,-6.7125 -10.2875,-17.9275 -10.2875,-33.735 0,-14.8825 3.47375,-25.6525 10.48125,-32.28125 6.98125,-6.64375 16.0975,-9.9425 27.30375,-9.9425 l 1.84125,0 c 11.10875,0 20.1325,3.29875 27.05125,9.9425 6.93125,6.62875 10.38875,17.39875 10.38875,32.28125 0,15.8075 -3.40625,27.0225 -10.1875,33.735 z m 22.0075,-80.24875 C 423.2025,94.32625 406.3225,88.58 385.395,88.58 l -1.47375,0.0125 c -19.99875,0.44625 -36.21375,6.19125 -48.68375,17.22875 -12.9775,11.47875 -19.455,27.6225 -19.455,48.38625 0,19.62625 6.4325,35.12 19.34375,46.4225 12.88625,11.3325 29.35,16.9975 49.38375,16.9975 l 2.73375,0 c 19.83,0 36.1325,-5.665 48.91625,-16.9975 12.775,-11.3025 19.15375,-26.79625 19.15375,-46.4225 0,-20.76375 -6.4125,-36.9075 -19.26,-48.38625"
     inkscape:connector-curvature="0"
     id="path24"
     style="fill:#cccfd5;fill-opacity:1;fill-rule:nonzero;stroke:none" /><path
     d="m 145.3975,217.6275 29.79487,0 0,-126.2825 -29.79487,0 0,126.2825 z"
     inkscape:connector-curvature="0"
     id="path26"
     style="fill:#cccfd5;fill-opacity:1;fill-rule:nonzero;stroke:none" /><path
     d="M 0,217.6275 0,91.345 l 30.44625,0 64.2625,84.9075 0,-84.9075 29.03875,0 0,126.2825 -31.42,0 -63.2775,-83.03875 0,83.03875 -29.05,0"
     inkscape:connector-curvature="0"
     id="path28"
     style="fill:#cccfd5;fill-opacity:1;fill-rule:nonzero;stroke:none" /><path
     d="m 195.87,217.6275 29.79737,0 0,-126.2825 -29.79737,0 0,126.2825 z"
     inkscape:connector-curvature="0"
     id="path30"
     style="fill:#cccfd5;fill-opacity:1;fill-rule:nonzero;stroke:none" /><path
     d="m 225.1575,156.06 57.465,-63.13625 39.65125,0 -59.885,63.13625 60.69375,61.5675 -36.4225,0 -61.5025,-61.5675"
     inkscape:connector-curvature="0"
     id="path32"
     style="fill:#cccfd5;fill-opacity:1;fill-rule:nonzero;stroke:none" /><path
     d="m 502.1475,115.4925 0,-22.9275 -30.5775,0 0,125.0625 123.49875,0 45.56375,-95.54375 33.7925,66.11 -9.79625,-76.6725 -9.605,-21.8075 -29.9725,0 -50.35625,106.715 -72.5475,0 0,-80.93625"
     inkscape:connector-curvature="0"
     id="path34"
     style="fill:#cccfd5;fill-opacity:1;fill-rule:nonzero;stroke:none" /><path
     d="m 678.1,134.665 40.47375,83.14125 -44.35875,0 37.1725,87.2675 -70.755,-108.0575 46.16375,0 L 678.1,134.665"
     inkscape:connector-curvature="0"
     id="path36"
     style="fill:#f5ab14;fill-opacity:1;fill-rule:nonzero;stroke:none" /></svg>